# xmcd
# 
# Track frame offsets:
#     150
#     19471
#     41506
#     64721
#     84042
#     106078
# 
# Disc length: 1721
# 
# Revision: 3
# Processed by: cddbd v1.5.2PL0 Copyright (c) Steve Scherf et al.
# Submitted via: fre:ac v1.0.27
# 
DISCID=3d06b706
DTITLE=AKB48 - ジャーバージャ [TypeE]
DYEAR=2018
DGENRE=JPop
TTITLE0=ジャーバージャ
TTITLE1=Position (AKB48若手選抜)
TTITLE2=国境のない時代 (坂道AKB)
TTITLE3=ジャーバージャ off vocal ver.
TTITLE4=Position off vocal ver.
TTITLE5=国境のない時代 off vocal ver.
EXTD=
EXTT0=
EXTT1=
EXTT2=
EXTT3=
EXTT4=
EXTT5=
PLAYORDER=
